<svg width="342" height="343" viewBox="0 0 342 343" fill="none" xmlns="http://www.w3.org/2000/svg">
<path d="M134.33 57.0175L137.994 60.4188L137.994 60.4188L134.33 57.0175ZM25.4816 340.232C26.995 342.542 30.0943 343.187 32.4041 341.674L70.0435 317.011C72.3533 315.497 72.9988 312.398 71.4853 310.088C69.9719 307.779 66.8726 307.133 64.5628 308.647L31.1055 330.569L9.18273 297.112C7.66928 294.802 4.56996 294.157 2.26022 295.67C-0.0495266 297.184 -0.695046 300.283 0.818409 302.593L25.4816 340.232ZM340.922 7.41566C341.581 2.45929 341.579 2.45905 341.577 2.45873C341.576 2.45853 341.573 2.45815 341.57 2.45774C341.564 2.45694 341.555 2.45586 341.545 2.4545C341.524 2.45178 341.495 2.44795 341.457 2.44306C341.381 2.43328 341.271 2.41927 341.127 2.40144C340.84 2.36579 340.421 2.31483 339.874 2.25186C338.781 2.12591 337.183 1.95182 335.133 1.75573C331.033 1.36362 325.125 0.883209 317.842 0.524108C303.288 -0.193618 283.196 -0.429302 261.067 1.50787C217.097 5.35703 163.824 17.887 130.665 53.6162L134.33 57.0175L137.994 60.4188C168.508 27.5407 218.532 15.2697 261.939 11.4698C283.499 9.58241 303.118 9.81015 317.35 10.512C324.461 10.8626 330.216 11.331 334.181 11.7103C336.163 11.8999 337.697 12.0671 338.729 12.1861C339.245 12.2456 339.635 12.2929 339.893 12.325C340.022 12.3411 340.118 12.3533 340.18 12.3612C340.211 12.3652 340.233 12.3681 340.247 12.37C340.254 12.3709 340.259 12.3715 340.262 12.3718C340.263 12.372 340.263 12.3721 340.264 12.3722C340.264 12.3721 340.263 12.372 340.922 7.41566ZM134.33 57.0175L130.665 53.6162C115.155 70.3275 100.888 96.5386 88.2255 125.972C75.5152 155.517 64.2333 188.765 54.8476 219.906C45.4575 251.062 37.9411 280.191 32.7727 301.526C30.1879 312.196 28.189 320.923 26.8354 326.986C26.1586 330.018 25.643 332.384 25.2961 333.995C25.1227 334.801 24.9914 335.417 24.9032 335.834C24.8591 336.042 24.8257 336.201 24.8033 336.307C24.7921 336.361 24.7836 336.401 24.7778 336.429C24.775 336.443 24.7728 336.453 24.7713 336.461C24.7705 336.464 24.7699 336.467 24.7695 336.469C24.7691 336.471 24.7688 336.472 29.6637 337.492C34.5587 338.511 34.5588 338.511 34.559 338.51C34.5593 338.508 34.5597 338.506 34.5603 338.503C34.5616 338.498 34.5635 338.488 34.5661 338.476C34.5713 338.451 34.5792 338.413 34.5899 338.362C34.6112 338.261 34.6434 338.108 34.6863 337.905C34.7722 337.5 34.9011 336.894 35.072 336.1C35.4139 334.513 35.9241 332.171 36.5952 329.165C37.9373 323.153 39.9226 314.485 42.4916 303.88C47.6306 282.666 55.0997 253.723 64.4222 222.792C73.7489 191.846 84.9066 158.991 97.4115 129.924C109.964 100.745 123.688 75.8334 137.994 60.4188L134.33 57.0175Z" fill="#00804C"/>
</svg>
